<svg xmlns="http://www.w3.org/2000/svg" width="128" height="128" viewBox="0 0 128 128">
  <defs>
    <linearGradient id="bg-gradient" x1="0%" y1="0%" x2="100%" y2="100%">
      <stop offset="0%" style="stop-color:#6366f1"/>
      <stop offset="100%" style="stop-color:#8b5cf6"/>
    </linearGradient>
  </defs>
  
  <!-- Background -->
  <rect width="128" height="128" rx="24" fill="url(#bg-gradient)"/>
  
  <!-- Contract/Document icon -->
  <g transform="translate(28, 20)">
    <!-- Document background -->
    <path d="M0 8 Q0 0 8 0 L48 0 L72 24 L72 80 Q72 88 64 88 L8 88 Q0 88 0 80 Z" 
          fill="white" fill-opacity="0.95"/>
    
    <!-- Folded corner -->
    <path d="M48 0 L48 16 Q48 24 56 24 L72 24 Z" 
          fill="white" fill-opacity="0.7"/>
    
    <!-- Contract lines -->
    <rect x="12" y="36" width="40" height="4" rx="2" fill="#6366f1" fill-opacity="0.8"/>
    <rect x="12" y="48" width="48" height="4" rx="2" fill="#6366f1" fill-opacity="0.6"/>
    <rect x="12" y="60" width="32" height="4" rx="2" fill="#6366f1" fill-opacity="0.4"/>
    
    <!-- Checkmark -->
    <circle cx="54" cy="70" r="12" fill="#22c55e"/>
    <path d="M48 70 L52 74 L60 66" stroke="white" stroke-width="3" stroke-linecap="round" stroke-linejoin="round" fill="none"/>
  </g>
</svg>

