<svg width="40" height="40" viewBox="0 0 40 40" fill="none" xmlns="http://www.w3.org/2000/svg">
  <!-- Background circle -->
  <circle cx="20" cy="20" r="18" fill="#0f172a" stroke="#334155" stroke-width="2"/>

  <!-- ContractSpec logo - stylized "C" with gears -->
  <path d="M14 12 L14 28 L20 28 L20 24 L16 24 L16 16 L20 16 L20 12 Z" fill="#60a5fa"/>
  <path d="M22 14 L22 26 L28 26 L28 22 L24 22 L24 18 L28 18 L28 14 Z" fill="#60a5fa"/>

  <!-- Gear icon in top right -->
  <circle cx="30" cy="10" r="4" fill="#fbbf24" stroke="#f59e0b" stroke-width="1"/>
  <circle cx="30" cy="10" r="2" fill="#f59e0b"/>
  <rect x="29.5" y="6" width="1" height="2" fill="#f59e0b"/>
  <rect x="29.5" y="12" width="1" height="2" fill="#f59e0b"/>
  <rect x="26" y="9.5" width="2" height="1" fill="#f59e0b"/>
  <rect x="32" y="9.5" width="2" height="1" fill="#f59e0b"/>
  <rect x="27.5" y="7" width="1" height="1.5" fill="#f59e0b" transform="rotate(45 28 7.5)"/>
  <rect x="32" y="12.5" width="1" height="1.5" fill="#f59e0b" transform="rotate(45 32.5 13)"/>
  <rect x="27.5" y="12.5" width="1" height="1.5" fill="#f59e0b" transform="rotate(-45 28 13)"/>
  <rect x="32" y="7" width="1" height="1.5" fill="#f59e0b" transform="rotate(-45 32.5 7.5)"/>
</svg>




